<svg width="45" height="45" viewBox="0 0 40 40" fill="none" xmlns="http://www.w3.org/2000/svg">
<g clip-path="url(#clip0_153_13952)">
<path d="M28.2781 37.9966H27.9762C25.952 37.9966 23.9277 37.9943 21.9034 38C21.7191 38 21.5742 37.9628 21.4532 37.8186C21.3133 37.6509 21.1518 37.5004 21.016 37.3299C20.3432 36.4875 20.2758 35.5895 20.7906 34.6458C21.117 34.0472 21.5587 33.5373 22.0318 33.0537C23.1635 31.896 24.4128 30.8664 25.6124 29.7825C27.6292 27.9615 29.5279 26.0334 31.0876 23.7935C32.2222 22.1647 33.1558 20.4301 33.8447 18.565C33.876 18.4792 33.9149 18.3962 33.9696 18.2651C34.0336 18.482 33.9833 18.6406 33.9508 18.8002C33.9188 18.9588 33.8915 19.1179 33.8578 19.2758C33.3579 21.613 32.4259 23.7786 31.2286 25.8325C30.4485 27.1706 29.6244 28.4823 28.8294 29.8111C28.3215 30.6593 27.8621 31.5326 27.5236 32.466C26.8525 34.3173 27.0351 36.0708 28.1132 37.7242C28.1594 37.7952 28.2016 37.8684 28.2792 37.996L28.2781 37.9966Z" fill="#830D35"/>
<path d="M22.8391 12.101C23.6244 12.5177 24.2356 13.0791 24.6391 13.8334C25.6149 15.6555 25.5071 17.4932 24.5346 19.2598C23.3938 21.331 21.5567 22.2415 19.2237 22.1991C18.604 22.1877 17.9939 22.0898 17.3981 21.9227C17.2257 21.8741 17.1247 21.9181 16.9952 22.0251C15.7499 23.0518 14.3323 23.2252 12.8091 22.8515C12.7543 22.8384 12.7024 22.8115 12.6516 22.7863C12.6294 22.7748 12.6128 22.7508 12.5609 22.701C13.0351 22.6902 13.4746 22.7142 13.9094 22.6392C14.4464 22.5465 14.9641 22.404 15.4383 22.127C15.8155 21.9067 16.1277 21.6194 16.3155 21.2182C16.3714 21.0992 16.425 21.0723 16.5654 21.0843C17.6572 21.1776 18.6833 20.9487 19.6175 20.3729C20.7281 19.6891 21.2714 18.6532 21.3929 17.3753C21.4318 16.9667 21.4146 16.5569 21.3884 16.1483C21.3598 15.7008 21.1607 15.3259 20.8736 14.998C19.9873 13.9862 18.8465 13.4516 17.5362 13.2657C16.2658 13.0854 15.105 13.3801 14.0647 14.1378C13.995 14.1882 13.942 14.2357 13.8398 14.1859C12.8411 13.7006 11.7961 13.7555 10.7432 13.9375C10.4196 13.9936 10.1 14.0714 9.72852 14.1504C10.0144 13.5913 10.2176 13.0419 10.536 12.548C10.6131 12.4284 10.7261 12.3729 10.8528 12.3219C12.239 11.7662 13.6566 11.7147 15.1045 12.0295C15.8452 12.1903 16.5803 12.3935 17.3467 12.4072C17.7502 12.4147 18.1485 12.3677 18.5189 12.2144C18.7324 12.1256 18.7763 12.2092 18.8203 12.3786C18.8899 12.6487 19.0154 12.8931 19.1906 13.1106C19.7488 13.8025 20.711 13.7996 21.2497 13.0951C21.3416 12.9749 21.4266 12.9103 21.5756 12.9332C21.6218 12.9406 21.6703 12.9332 21.7177 12.932C22.2741 12.9217 22.7461 12.7901 22.8391 12.1028V12.101Z" fill="#830D35"/>
<path d="M13.8409 17.6133C13.4854 17.4766 13.2377 17.2454 13.0556 16.9386C12.8365 16.5706 12.7509 16.1637 12.7241 15.7414C12.7155 15.608 12.7281 15.469 12.5648 15.41C12.3919 15.3476 12.2276 15.378 12.0689 15.4547C11.9765 15.4993 12.0307 15.5577 12.0632 15.6166C12.1642 15.7992 12.2806 15.976 12.356 16.1689C12.6653 16.9592 12.3463 17.6843 11.5593 18.0065C10.5754 18.4094 9.58011 17.983 9.33015 17.0525C9.29248 16.9123 9.25424 16.7595 9.30047 16.6307C9.38094 16.4064 9.29191 16.2753 9.14809 16.1174C8.80682 15.7408 8.83878 15.3385 9.224 14.9928C9.69311 14.5716 10.2661 14.3885 10.8762 14.2889C11.969 14.1109 13.0328 14.1802 14.0538 14.642C14.1131 14.6689 14.1571 14.7009 14.233 14.6523C15.2106 14.0251 16.2989 13.8809 17.4277 13.9455C18.2906 13.9953 19.0776 14.2769 19.7773 14.7925C20.7161 15.4838 21.0071 16.2742 20.7389 17.4096C20.2532 19.4641 18.8237 20.5973 16.699 20.5738C16.3 20.5692 16.0147 20.6602 15.6974 20.9275C14.7306 21.7413 13.6046 22.19 12.3177 22.119C11.6905 22.0841 11.1661 21.8214 10.7877 21.3023C10.5851 21.0248 10.6022 20.8245 10.8744 20.6207C10.9926 20.532 11.0285 20.4725 10.9652 20.3277C10.8419 20.0467 10.9372 19.7875 11.1033 19.5511C11.2916 19.2827 11.549 19.0847 11.8024 18.8838C11.8441 18.8506 11.8891 18.7974 11.9525 18.8346C12.0124 18.8701 11.9941 18.9336 11.9896 18.9891C11.9628 19.3148 11.9725 19.637 12.1066 19.942C12.2298 20.2224 12.4313 20.4061 12.7458 20.445C12.8525 20.4582 12.9124 20.4336 12.8896 20.3088C12.7891 19.7674 13.1435 19.4441 13.4671 19.107C13.5042 19.0681 13.5493 19.0109 13.6121 19.0446C13.6754 19.0784 13.6497 19.1477 13.6355 19.1974C13.5841 19.3737 13.5664 19.5523 13.5795 19.7337C13.5921 19.9054 13.6623 20.0255 13.8569 20.0255C14.0766 20.0255 14.0932 19.8796 14.0829 19.7137C14.0646 19.4264 14.1177 19.1625 14.3403 18.9594C14.3785 18.925 14.4447 18.8896 14.4875 18.8993C14.5543 18.9153 14.536 18.9943 14.5292 19.0469C14.5081 19.2095 14.5052 19.3686 14.5617 19.5259C14.6319 19.7222 14.7426 19.7234 14.8779 19.5929C14.9184 19.554 14.9652 19.5088 14.9806 19.4578C15.0907 19.0956 15.2882 19.0853 15.6318 19.1894C16.4011 19.4224 17.139 19.277 17.793 18.7986C18.5235 18.264 18.9966 17.5441 19.2614 16.6817C19.3487 16.3967 19.3008 16.1798 19.0251 16.0041C17.6589 15.133 16.2281 15.0111 14.7306 15.6023C14.4727 15.7042 14.2484 15.8673 14.0595 16.0739C13.6908 16.4779 13.636 16.851 13.8421 17.6128L13.8409 17.6133Z" fill="#830D35"/>
<path d="M33.9695 25.3833C33.7926 25.7753 33.6305 26.105 33.4924 26.4443C32.8498 28.0187 32.9085 29.6165 33.3383 31.2287C33.5409 31.9898 33.7703 32.7441 33.8953 33.5253C34.0933 34.7654 33.7857 35.8602 33.0033 36.8314C32.698 37.2109 32.3516 37.5485 31.992 37.8747C31.8921 37.9651 31.8134 37.976 31.6918 37.9068C30.2788 37.1033 29.4473 35.9169 29.32 34.2767C29.2093 32.8448 29.6425 31.5354 30.2737 30.2793C31.1839 28.4674 32.456 26.9222 33.8382 25.46C33.8565 25.4405 33.8856 25.4314 33.97 25.3833H33.9695Z" fill="#830D35"/>
<path d="M18.4116 37.9467C16.8964 37.9467 15.396 37.9444 13.8963 37.9501C13.7467 37.9501 13.7051 37.8454 13.6423 37.7578C13.0619 36.9452 12.4838 36.1314 11.9057 35.317C11.8338 35.2163 11.7647 35.1138 11.6557 35.0475C11.4 34.8912 11.1672 34.9639 11.0628 35.2478C10.9509 35.5511 10.8413 35.8544 10.6758 36.1337C10.4852 36.4559 10.2752 36.7552 9.91167 36.9114C9.74446 36.9835 9.6229 37.1255 9.49563 37.2542C9.41516 37.3355 9.33356 37.4133 9.21599 37.4408C8.88898 37.5163 8.71663 37.399 8.64815 37.0785C8.60934 36.8954 8.655 36.7231 8.67611 36.5377C8.43585 36.4748 8.0883 36.7329 7.98329 36.3117C7.91138 36.0249 8.0318 35.7714 8.16363 35.5293C8.04207 35.4355 7.90225 35.4011 7.77784 35.4091C7.49649 35.428 7.48565 35.2483 7.46396 35.052C7.43371 34.7762 7.61691 34.5931 7.74588 34.3802C7.73047 34.3676 7.71906 34.3521 7.70422 34.3464C7.1575 34.141 7.19687 34.1616 7.47081 33.6614C7.78925 33.0799 8.23497 32.9294 8.82507 33.1062C9.5196 33.3146 10.0874 33.2716 10.6462 32.6787C11.2345 32.0544 12.0307 32.0412 12.8159 32.3806C13.4665 32.6621 14.0298 33.0702 14.4299 33.6539C14.9606 34.4288 15.5975 35.1064 16.2481 35.7731C16.8993 36.4404 17.5698 37.0883 18.2301 37.7464C18.2952 37.8111 18.3831 37.858 18.4105 37.9461L18.4116 37.9467Z" fill="#830D35"/>
<path d="M9.10787 18.4614C9.42974 18.8672 9.84863 19.0457 10.3223 19.1064C10.3446 19.1619 10.32 19.202 10.2961 19.2432C9.22543 21.0671 8.65759 23.0558 8.38423 25.1378C8.17536 26.7287 8.20617 28.3083 8.67129 29.8592C8.87674 30.5442 9.19005 31.1789 9.60666 31.7901C9.3721 31.7901 9.16836 31.8004 8.96634 31.7884C8.34656 31.7506 7.77872 31.912 7.26453 32.2479C7.06136 32.3807 6.99459 32.3338 6.91983 32.1215C5.22715 27.3096 5.86176 22.8446 8.89728 18.7356C8.95949 18.6514 9.02512 18.5702 9.10844 18.4626L9.10787 18.4614Z" fill="#830D35"/>
<path d="M24.1409 28.8737C23.6718 29.5118 23.1091 30.064 22.5207 30.5877C21.889 31.1497 21.2344 31.6853 20.5889 32.2319C19.7471 32.9444 19.1045 33.7811 18.9407 34.9102C18.9196 35.0561 18.8489 35.0699 18.7262 35.055C18.3992 35.0161 18.1001 34.8947 17.8193 34.7356C16.3983 33.9321 15.2735 32.8265 14.4756 31.3963C14.2411 30.9757 14.3478 30.6174 14.7667 30.3725C15.0423 30.2111 15.3499 30.1527 15.6638 30.1207C16.3275 30.0532 16.9918 30.0795 17.6567 30.0938C19.2084 30.1281 20.7493 30.06 22.2525 29.6148C22.9008 29.4231 23.508 29.1369 24.1141 28.8462C24.1232 28.8548 24.1318 28.8634 24.1409 28.8725V28.8737Z" fill="#830D35"/>
<path d="M28.9716 7.3079C28.955 6.23943 28.3044 5.48687 27.2589 5.26253C26.9975 5.20644 26.7333 5.18241 26.4668 5.18756C26.3738 5.18927 26.3093 5.17783 26.2682 5.07768C26.0325 4.50138 25.5874 4.09963 25.1131 3.72936C24.3084 3.10098 23.4181 2.61453 22.4999 2.17673C22.4092 2.13324 22.3184 2.08974 22.1523 2.00962C22.7887 1.97528 23.3377 2.04053 23.8844 2.1195C25.1993 2.3095 26.4605 2.66661 27.6116 3.35622C29.1588 4.28276 30.0958 5.63051 30.323 7.42522C30.42 8.19381 30.202 8.91833 29.6901 9.52324C29.4047 9.86032 29.0218 10.0326 28.5841 10.028C27.8045 10.02 27.1048 9.77161 26.5592 9.19875C26.1147 8.7329 26.008 8.16576 26.2203 7.55799C26.4189 6.99085 26.7984 6.60398 27.4102 6.49295C27.7674 6.42829 28.083 6.54675 28.3786 6.73847C28.5943 6.87811 28.7656 7.06754 28.9727 7.30847L28.9716 7.3079Z" fill="#830D35"/>
<path d="M31.0675 6.60864C31.5195 6.98578 31.8711 7.44133 32.169 7.9375C32.9491 9.23832 33.3412 10.6691 33.5415 12.1593C33.6442 12.9233 33.7213 13.6908 33.6083 14.4616C33.5586 14.7981 33.5438 14.8039 33.2442 14.6465C32.363 14.1841 31.5047 13.6787 30.6035 13.2529C30.3496 13.1328 30.3319 12.8764 30.2965 12.6492C30.228 12.2148 30.3348 11.7988 30.4917 11.3964C30.716 10.8224 30.9631 10.2564 31.1691 9.67613C31.5167 8.69751 31.5115 7.72003 31.0835 6.75973C31.0652 6.71852 31.0276 6.68018 31.0675 6.60921V6.60864Z" fill="#830D35"/>
<path d="M26.1839 17.6603C26.5594 17.1744 26.4469 16.6531 26.322 16.1506C25.963 14.7084 25.3347 13.3818 24.5408 12.1308C24.506 12.0764 24.4689 12.0238 24.4238 11.9563C24.9888 11.6907 25.5669 11.7193 26.1353 11.8475C27.5119 12.1577 28.7035 12.8616 29.85 13.6537C29.951 13.7235 29.9476 13.7876 29.9071 13.8917C29.4768 14.9934 28.9169 16.0109 28.0295 16.8162C27.5107 17.2866 26.9126 17.5945 26.1839 17.6597V17.6603ZM28.8319 13.8935C27.7538 13.7922 27.0947 12.8433 26.0651 12.6321C26.7551 13.7573 27.3406 14.8772 27.1672 16.2278C27.2961 16.2381 27.3835 16.1763 27.4645 16.1128C27.7036 15.9245 27.832 15.6573 27.9604 15.3912C28.207 14.8801 28.405 14.3416 28.8324 13.8935H28.8319Z" fill="#830D35"/>
<path d="M20.1405 24.0881C19.983 24.3474 19.7598 24.5385 19.5332 24.7234C18.9403 25.2064 18.2686 25.5606 17.5906 25.9046C16.9309 26.2394 16.2712 26.5724 15.6154 26.9153C15.3289 27.0652 15.0613 27.2472 14.825 27.4715C14.5574 27.7262 14.409 28.01 14.466 28.4089C14.5265 28.8319 14.3051 29.1495 13.9678 29.4001C13.4017 29.8213 13.4057 29.8271 13.1877 30.3049C12.5885 29.8717 12.3625 28.8359 12.7066 28.0867C12.9685 27.5162 13.4091 27.0995 13.8971 26.7275C14.9329 25.9383 16.1108 25.409 17.2859 24.875C17.9501 24.5734 18.6395 24.3239 19.2565 23.9245C19.3598 23.8575 19.4568 23.8855 19.5555 23.913C19.7467 23.9662 19.9362 24.0269 20.1399 24.0881H20.1405Z" fill="#830D35"/>
<path d="M14.6914 5.04465C15.1508 4.52959 15.6753 4.23543 16.25 4.01968C16.3447 3.9842 16.4332 4.00423 16.5268 4.03341C18.4854 4.64863 19.9686 5.80179 20.7539 7.75674C20.8178 7.91641 20.8035 7.9971 20.6677 8.10698C20.3487 8.36566 20.1216 8.70961 19.8653 9.07816C18.8843 6.77984 17.2749 5.31191 14.6914 5.04465Z" fill="#830D35"/>
<path d="M17.1133 3.45884C17.6235 3.0611 18.1999 2.89685 18.8031 2.80013C18.8864 2.78697 18.9498 2.8276 19.0131 2.86881C20.0963 3.56471 21.1144 4.33673 21.9225 5.35598C22.2181 5.72912 22.4693 6.13087 22.6718 6.56238C22.7204 6.66539 22.7632 6.74494 22.6079 6.79587C22.1839 6.93551 21.7667 7.09289 21.4203 7.38762C21.3364 7.45916 21.3085 7.40651 21.2765 7.34184C21.2223 7.23081 21.1681 7.12036 21.115 7.00934C20.3006 5.3102 19.0485 4.09923 17.236 3.51149C17.2023 3.50062 17.1709 3.48402 17.1133 3.45941V3.45884Z" fill="#830D35"/>
<path d="M28.5388 17.967C28.5291 18.0008 28.5251 18.0363 28.5091 18.0654C27.4117 20.0582 25.9467 21.6921 23.8962 22.7342C23.0362 23.1714 22.119 23.3918 21.1437 23.2653C21.0153 23.2487 20.8886 23.2206 20.6895 23.1852C21.8691 22.8492 22.8975 22.3525 23.8631 21.7241C24.5182 21.2977 25.1357 20.8239 25.6528 20.2333C26.07 19.7566 26.4443 19.2541 26.4101 18.5685C26.4067 18.497 26.4295 18.4638 26.5031 18.4655C27.2068 18.4815 27.8311 18.1914 28.4692 17.9527C28.4834 17.9476 28.5034 17.959 28.5382 17.9664L28.5388 17.967Z" fill="#830D35"/>
<path d="M15.9843 28.6374C15.3542 28.6471 15.1962 28.3873 15.4376 27.9214C15.5842 27.6381 15.8382 27.4693 16.1041 27.3182C16.6931 26.9852 17.334 26.7728 17.9589 26.5239C18.7796 26.1965 19.5911 25.8526 20.3062 25.3186C20.6046 25.096 20.91 24.8648 21.0966 24.5449C21.2895 24.2141 21.5703 24.1752 21.8876 24.1792C22.024 24.1809 22.2186 24.1134 22.2813 24.2445C22.3378 24.3623 22.1929 24.4997 22.1153 24.6147C21.8002 25.08 21.3762 25.4331 20.9077 25.729C20.3781 26.0632 19.8348 26.3757 19.2989 26.6996C18.9981 26.8816 18.6957 27.063 18.4446 27.3131C18.2271 27.5294 18.0599 27.7675 18.1798 28.0983C18.2248 28.223 18.1409 28.2476 18.0548 28.2671C17.3328 28.4313 16.6109 28.595 15.9837 28.6368L15.9843 28.6374Z" fill="#830D35"/>
<path d="M25.61 5.40907C25.1957 5.56416 24.7603 5.60594 24.3397 5.7101C24.0823 5.77419 23.8135 5.81139 23.5903 5.96362C23.4636 6.05004 23.4168 5.95847 23.3603 5.89266C23.0933 5.58305 22.8159 5.28088 22.5705 4.95467C21.8286 3.9669 21.0291 3.04665 19.8574 2.51041C20.2016 2.36505 20.5548 2.3599 21.065 2.49725C22.3063 2.8309 23.3661 3.5125 24.3933 4.25361C24.7169 4.48711 25.0279 4.73892 25.3138 5.0182C25.4274 5.12922 25.5558 5.23223 25.61 5.40907Z" fill="#830D35"/>
<path d="M20.7168 9.66116C20.9086 9.06769 21.2784 8.64362 21.7583 8.31513C22.6589 7.69877 23.6673 7.39832 24.7516 7.35139C25.1505 7.33422 25.2413 7.43723 25.195 7.84184C25.078 8.86109 24.7373 9.79965 24.1324 10.6318C23.871 10.9912 23.5497 11.2847 23.1149 11.4232C23.0087 11.457 22.9105 11.4965 22.8786 11.3042C22.6874 10.1682 21.9917 9.61823 20.8332 9.66745C20.8053 9.6686 20.7773 9.66459 20.7174 9.66173L20.7168 9.66116ZM21.8679 9.02133C22.5961 9.20905 23.0829 9.60221 23.2952 10.2901C23.3466 10.4555 23.4116 10.3954 23.4852 10.3233C24.0548 9.76188 24.3555 9.06826 24.4725 8.28651C24.4988 8.10967 24.4069 8.05302 24.242 8.0513C23.9937 8.04844 23.7483 8.0679 23.5075 8.12398C22.8894 8.2682 22.3204 8.50398 21.8685 9.02133H21.8679Z" fill="#830D35"/>
<path d="M19.8701 28.1441C19.6744 28.1509 19.3748 28.2236 19.316 28.0754C19.2395 27.8819 19.4684 27.6914 19.6259 27.5409C19.9164 27.2627 20.2662 27.0681 20.6046 26.8581C20.9676 26.6326 21.3294 26.4071 21.6587 26.1319C22.2454 25.6414 22.6197 25.0342 22.678 24.2588C22.6905 24.0928 22.747 24.0087 22.9034 23.9537C23.1619 23.8627 23.4119 23.746 23.6653 23.6401C23.8239 23.5737 23.9072 23.6064 23.8701 23.7958C23.6447 24.9455 23.2743 26.018 22.3019 26.7734C22.1221 26.9131 21.9457 27.0578 21.7763 27.2101C21.6701 27.3051 21.5468 27.4264 21.5719 27.5695C21.6262 27.8768 21.4304 27.9054 21.221 27.9466C20.7741 28.0342 20.3273 28.1223 19.8701 28.1441Z" fill="#830D35"/>
<path d="M25.296 24.3503C25.2852 25.2505 25.0523 26.0655 24.5963 26.8094C24.2602 27.3577 23.7363 27.5918 23.1074 27.5969C22.9579 27.5981 22.7907 27.5734 22.7096 27.4218C22.6263 27.2667 22.7479 27.1511 22.8289 27.0384C23.391 26.2549 23.8847 25.4388 24.1015 24.4819C24.1735 24.166 24.226 23.8461 24.2345 23.5239C24.2391 23.3476 24.2904 23.2624 24.4588 23.1914C25.1008 22.9196 25.0928 22.9127 25.2281 23.6092C25.2778 23.8633 25.2812 24.1191 25.296 24.3503Z" fill="#830D35"/>
<path d="M12.9517 8.94588C13.0899 8.51667 13.305 8.20419 13.4968 7.87913C13.5333 7.81732 13.5881 7.79043 13.6577 7.77669C14.1154 7.68513 14.5765 7.61645 15.0428 7.68513C16.2675 7.86654 17.0157 8.65516 17.2839 10.0384C17.3238 10.2433 17.3392 10.4533 17.3855 10.657C17.4408 10.9025 17.3352 10.9495 17.1172 10.9335C16.5625 10.8922 16.1277 10.4853 15.9867 9.85583C15.8149 9.08495 15.4651 8.78221 14.6741 8.68149C14.0948 8.60766 13.5453 8.70609 12.9512 8.94646L12.9517 8.94588Z" fill="#830D35"/>
<path d="M24.8047 11.1926C25.2127 10.6558 25.5357 10.1127 25.7446 9.47461C26.2132 10.3061 26.9956 10.5889 27.8408 10.7205C28.6786 10.851 29.5084 10.8292 30.2411 10.3027C30.1995 11.0335 29.4861 11.6585 28.6352 11.7214C27.7889 11.7844 26.9773 11.5778 26.1607 11.4141C25.7235 11.3265 25.2864 11.2464 24.8047 11.1921V11.1926Z" fill="#830D35"/>
<path d="M25.7429 24.2428C25.7434 23.7712 25.643 23.3174 25.4952 22.8756C25.4404 22.7113 25.4758 22.6243 25.5996 22.5156C26.1338 22.0452 26.1429 22.0349 26.4517 22.6804C27.0321 23.8925 26.9567 25.1275 26.5316 26.3625C26.4328 26.6498 26.1098 26.7717 25.7971 26.6773C25.4821 26.5823 25.2761 26.2807 25.3485 25.9808C25.4085 25.733 25.5055 25.4944 25.5774 25.2488C25.6305 25.0674 25.6801 24.8832 25.7121 24.6972C25.7372 24.5484 25.7337 24.3944 25.7429 24.2428Z" fill="#830D35"/>
<path d="M28.5161 24.3834C28.5029 24.5207 28.4984 24.6735 28.4721 24.8223C28.4242 25.097 28.1674 25.2802 27.866 25.2681C27.5761 25.2561 27.3975 25.089 27.3615 24.792C27.3524 24.717 27.3478 24.6398 27.3518 24.5642C27.3964 23.7006 27.1042 22.9418 26.6248 22.2459C26.5015 22.0667 26.433 21.9448 26.6813 21.8115C26.8085 21.7434 26.9233 21.6164 26.9946 21.4887C27.1076 21.2861 27.2 21.3468 27.333 21.4561C28.0549 22.0484 28.3431 22.8548 28.4636 23.743C28.4915 23.9496 28.4978 24.159 28.5155 24.3828L28.5161 24.3834Z" fill="#830D35"/>
<path d="M29.0693 18.4814C30.0018 19.036 30.69 19.7874 31.1192 20.7626C31.2784 21.1249 30.9628 21.7406 30.5907 21.8837C30.4121 21.9524 30.2546 21.9358 30.1496 21.7509C30.1074 21.6765 30.052 21.6079 30.0212 21.5295C29.7415 20.8101 29.2821 20.2281 28.6778 19.7582C28.5671 19.6718 28.5796 19.5997 28.6361 19.4938C28.805 19.1774 28.9528 18.8511 29.0687 18.4814H29.0693Z" fill="#830D35"/>
<path d="M21.2591 10.2896C21.8892 10.2861 22.4113 10.7806 22.4125 11.3804C22.4131 11.9572 21.9291 12.4254 21.3259 12.4311C20.693 12.4374 20.1822 11.9498 20.1816 11.3386C20.1805 10.7508 20.6513 10.293 21.2597 10.2896H21.2591Z" fill="#830D35"/>
<path d="M28.2018 20.0261C29.011 20.4977 29.4459 21.2205 29.7096 22.0686C29.7603 22.2312 29.7969 22.3988 29.8243 22.5671C29.8836 22.9311 29.6571 23.3054 29.3089 23.4181C29.0898 23.4891 28.9129 23.4358 28.8261 23.2041C28.7896 23.1073 28.7588 23.0049 28.7462 22.903C28.6515 22.1407 28.2543 21.5593 27.6648 21.0997C27.5169 20.9847 27.5038 20.9172 27.6499 20.7896C27.8856 20.583 28.0888 20.3437 28.2024 20.0267L28.2018 20.0261Z" fill="#830D35"/>
<path d="M12.2843 11.2357C12.1799 10.336 13.0119 9.35053 13.8754 9.31733C14.2754 9.30188 14.5425 9.47929 14.6823 9.85929C14.821 10.2353 14.7896 10.6056 14.6304 10.9684C14.5214 11.2173 14.3491 11.3387 14.066 11.2591C13.9022 11.2128 13.7339 11.1819 13.5661 11.151C13.1335 11.0708 12.7032 11.0525 12.2837 11.2362L12.2843 11.2357Z" fill="#830D35"/>
<path d="M31.7482 19.4519C31.7379 19.583 31.7276 19.7261 31.6568 19.8548C31.5815 19.9916 31.4908 20.1141 31.3201 20.1324C31.1398 20.1518 31.1118 19.9916 31.0508 19.8829C30.6433 19.1555 30.096 18.5826 29.3022 18.281C29.1561 18.2255 29.1155 18.1643 29.1994 18.0115C29.3495 17.7373 29.4911 17.4558 29.5744 17.1513C29.6063 17.034 29.6503 17.0294 29.7479 17.0895C30.4795 17.5359 31.1153 18.0824 31.5781 18.8144C31.6996 19.0061 31.7333 19.2202 31.7482 19.4519Z" fill="#830D35"/>
<path d="M29.966 15.6057C30.7227 15.9182 31.4258 16.2822 31.9896 16.8693C32.2111 17.1 32.3275 17.3764 32.2459 17.7009C32.134 18.145 31.7197 18.2629 31.3864 17.9544C31.0731 17.6642 30.7644 17.3684 30.4048 17.1337C30.253 17.0347 30.0927 16.9443 29.9117 16.9248C29.7177 16.9037 29.6778 16.8201 29.7348 16.6433C29.8421 16.3108 29.9232 15.9708 29.9665 15.6057H29.966Z" fill="#830D35"/>
<path d="M30.4318 14.1182C31.2239 14.4382 31.9658 14.8073 32.5474 15.4339C32.7157 15.6154 32.7785 15.8477 32.7448 16.0961C32.7163 16.3044 32.5867 16.4389 32.3978 16.5121C32.2232 16.5797 32.0743 16.539 31.9299 16.408C31.6628 16.1653 31.3843 15.9353 31.1018 15.7104C30.9083 15.5564 30.6989 15.4116 30.4495 15.3784C30.2115 15.347 30.1573 15.2571 30.2383 15.0328C30.3411 14.7478 30.3998 14.4485 30.4318 14.1177V14.1182Z" fill="#830D35"/>
<path d="M18.2683 17.343C18.2044 17.8449 17.9407 18.1236 17.5726 18.3159C17.0236 18.6026 16.4278 18.6358 15.8252 18.6066C15.2362 18.578 14.649 18.5694 14.0606 18.6227C13.576 18.6662 13.1281 18.7795 12.764 19.1291C12.6549 19.2344 12.5197 19.3088 12.3667 19.3432C12.3234 19.021 12.4718 18.74 12.8022 18.5357C13.1663 18.3108 13.576 18.2329 13.9915 18.178C14.5394 18.1053 15.0918 18.0921 15.6408 18.1334C16.3376 18.1854 16.9768 18.0384 17.5783 17.691C17.7826 17.5731 17.9995 17.4775 18.2677 17.343H18.2683Z" fill="#830D35"/>
<path d="M19.3901 9.52226C19.3416 9.85247 19.3193 10.1815 19.3781 10.514C19.4204 10.7533 19.4883 10.9793 19.6755 11.1424C19.793 11.2449 19.7382 11.2941 19.6401 11.3462C19.353 11.4978 19.0368 11.5642 18.7281 11.6523C18.6248 11.6821 18.57 11.6151 18.5135 11.551C18.2516 11.2557 18.0689 10.9169 17.9617 10.5369C17.9388 10.4557 17.9034 10.3773 18.013 10.3189C18.461 10.0825 18.8291 9.73744 19.216 9.4181C19.2583 9.38319 19.3022 9.32711 19.3627 9.36431C19.4215 9.40036 19.3861 9.46732 19.3895 9.52112L19.3901 9.52226Z" fill="#830D35"/>
<path d="M16.5905 7.39087C16.6008 7.0658 16.683 6.77565 16.7749 6.48493C16.8542 6.23312 16.9952 6.18276 17.2194 6.28978C17.2794 6.31839 17.3444 6.33556 17.4026 6.36704C17.7502 6.55646 18.0766 6.82773 18.0669 7.22433C18.0566 7.66328 17.7456 7.99921 17.3821 8.25674C17.2913 8.32141 17.2503 8.27677 17.2017 8.20638C17.0545 7.99463 16.8953 7.79376 16.6579 7.67529C16.5083 7.60032 16.6088 7.47442 16.59 7.39087H16.5905Z" fill="#830D35"/>
<path d="M19.0909 8.57803C19.0812 8.61122 19.0744 8.67074 19.0475 8.71824C18.7907 9.17378 18.4472 9.54749 17.9992 9.82162C17.8753 9.89716 17.8177 9.88285 17.804 9.72604C17.7806 9.46909 17.7155 9.22071 17.5894 8.99294C17.5472 8.9174 17.5375 8.86475 17.6105 8.79836C17.9615 8.47845 18.3113 8.15797 18.5779 7.75679C18.6766 7.60799 18.7845 7.73504 18.8547 7.80887C19.0521 8.01604 19.0578 8.29131 19.0909 8.57803Z" fill="#830D35"/>
<path d="M15.0078 6.58125C15.0187 6.28996 15.1014 6.01354 15.2155 5.73884C15.3228 5.48074 15.4758 5.40634 15.7446 5.48303C16.1555 5.60035 16.3113 5.85788 16.1789 6.25963C16.0773 6.56752 16.0094 6.88171 16.0168 7.20677C16.0202 7.34984 15.9837 7.40078 15.8405 7.3424C15.7897 7.3218 15.728 7.32867 15.6732 7.3155C15.5009 7.27373 15.2743 7.41623 15.1625 7.26972C15.0209 7.08487 15.0141 6.82677 15.0084 6.58125H15.0078Z" fill="#830D35"/>
<path d="M14.8418 7.3836C14.3641 7.27715 13.9464 7.20962 13.5349 7.4082C13.4082 7.46887 13.3512 7.37043 13.3557 7.26742C13.3814 6.62245 13.5703 6.03585 14.0326 5.56886C14.2055 5.39374 14.4258 5.49961 14.6255 5.5494C14.7408 5.57802 14.6666 5.6547 14.6512 5.70678C14.6038 5.86988 14.5308 6.02726 14.4988 6.19323C14.4155 6.62245 14.4806 7.02191 14.8424 7.3836H14.8418Z" fill="#830D35"/>
<path d="M20.0001 13.1676C19.6914 13.1716 19.3661 12.9542 19.2474 12.6531C19.1292 12.3544 19.2514 12.118 19.4591 11.9091C19.4928 11.8754 19.527 11.8428 19.563 11.8119C19.8711 11.5486 19.8728 11.5497 20.0515 11.9011C20.2307 12.2542 20.4829 12.5232 20.8847 12.6188C20.936 12.6308 21.0131 12.6125 21.0279 12.6817C21.0445 12.7579 20.9749 12.7996 20.9229 12.8363C20.6467 13.032 20.3425 13.1533 20.0007 13.1676H20.0001Z" fill="#830D35"/>
<path d="M12.347 37.9915H10.2754C10.7 37.5079 11.0869 37.0672 11.503 36.5928C11.7854 37.0609 12.0548 37.5067 12.347 37.9915Z" fill="#830D35"/>
<path d="M17.3665 11.5414C17.1604 11.7651 16.939 11.776 16.7233 11.7663C16.0105 11.7354 15.3285 11.5522 14.6191 11.3336C14.816 11.1184 14.9895 10.9198 15.0357 10.6486C15.0517 10.5547 15.1191 10.557 15.187 10.5862C15.2475 10.6125 15.3074 10.6429 15.3622 10.6795C15.9648 11.0784 16.5818 11.4441 17.3665 11.5414Z" fill="#830D35"/>
<path d="M15.4497 15.9599C15.3898 16.4011 15.3418 16.8068 15.5159 17.1994C15.5616 17.303 15.5176 17.3374 15.4189 17.3368C15.2773 17.3368 15.1643 17.2704 15.0639 17.1788C14.7843 16.9242 14.6188 16.5934 14.4573 16.2592C14.4036 16.1476 14.4555 16.1029 14.5457 16.0686C14.7757 15.9816 15.0034 15.8889 15.2368 15.8122C15.4354 15.747 15.4622 15.7761 15.4497 15.9593V15.9599Z" fill="#830D35"/>
<path d="M16.82 16.8482C16.4279 16.7973 16.2647 16.5426 16.1186 16.2948C15.7654 15.6956 15.7186 15.8209 16.3886 15.5932C16.5609 15.5342 16.6397 15.5634 16.6271 15.7551C16.6031 16.1168 16.6414 16.4699 16.8194 16.8488L16.82 16.8482Z" fill="#830D35"/>
<path d="M17.2441 15.6599C17.4559 15.712 17.7281 15.7057 17.7766 15.807C17.8668 15.9947 17.7258 16.2362 17.7663 16.4708C17.7817 16.5607 17.6237 16.4926 17.5711 16.444C17.3583 16.2465 17.3046 15.9758 17.2441 15.6605V15.6599Z" fill="#830D35"/>
<path d="M33.9769 25.3723L33.9609 25.3626C33.9672 25.354 33.9729 25.3454 33.9792 25.3374C33.9843 25.3437 33.994 25.35 33.9935 25.3563C33.9935 25.362 33.9826 25.3672 33.9769 25.3729V25.3723Z" fill="#830D35"/>
<path d="M24.1152 28.8473C24.1289 28.8221 24.1535 28.798 24.1752 28.8238C24.1991 28.8524 24.1672 28.8656 24.1421 28.8736C24.1329 28.865 24.1244 28.8558 24.1152 28.8473Z" fill="#830D35"/>
</g>
<defs>
<clipPath id="clip0_153_13952">
<rect width="28" height="36" fill="white" transform="translate(6 2)"/>
</clipPath>
</defs>
</svg>